ModelForces
version=1
nRows=4
nColumns=157
inDegrees=no

This file contains the forces exerted on a model during a simulation.

A force is a generalized force, meaning that it can be either a force (N) or a torque (Nm).

Units are S.I. units (second, meters, Newtons, ...)
Angles are in degrees.

endheader
time	glut_med1_r	glut_med2_r	glut_med3_r	glut_min1_r	glut_min2_r	glut_min3_r	semimem_r	semiten_r	bifemlh_r	bifemsh_r	sar_r	add_long_r	add_brev_r	add_mag1_r	add_mag2_r	add_mag3_r	tfl_r	pect_r	grac_r	glut_max1_r	glut_max2_r	glut_max3_r	iliacus_r	psoas_r	quad_fem_r	gem_r	peri_r	rect_fem_r	vas_med_r	vas_int_r	vas_lat_r	med_gas_r	lat_gas_r	soleus_r	tib_post_r	flex_dig_r	flex_hal_r	tib_ant_r	per_brev_r	per_long_r	per_tert_r	ext_dig_r	ext_hal_r	glut_med1_l	glut_med2_l	glut_med3_l	glut_min1_l	glut_min2_l	glut_min3_l	semimem_l	semiten_l	bifemlh_l	bifemsh_l	sar_l	add_long_l	add_brev_l	add_mag1_l	add_mag2_l	add_mag3_l	tfl_l	pect_l	grac_l	glut_max1_l	glut_max2_l	glut_max3_l	iliacus_l	psoas_l	quad_fem_l	gem_l	peri_l	rect_fem_l	vas_med_l	vas_int_l	vas_lat_l	med_gas_l	lat_gas_l	soleus_l	tib_post_l	flex_dig_l	flex_hal_l	tib_ant_l	per_brev_l	per_long_l	per_tert_l	ext_dig_l	ext_hal_l	ercspn_r	ercspn_l	intobl_r	intobl_l	extobl_r	extobl_l	femur_lat_meniscii_r.femur_lat_r.force.X	femur_lat_meniscii_r.femur_lat_r.force.Y	femur_lat_meniscii_r.femur_lat_r.force.Z	femur_lat_meniscii_r.femur_lat_r.torque.X	femur_lat_meniscii_r.femur_lat_r.torque.Y	femur_lat_meniscii_r.femur_lat_r.torque.Z	femur_lat_meniscii_r.meniscus_lat_r.force.X	femur_lat_meniscii_r.meniscus_lat_r.force.Y	femur_lat_meniscii_r.meniscus_lat_r.force.Z	femur_lat_meniscii_r.meniscus_lat_r.torque.X	femur_lat_meniscii_r.meniscus_lat_r.torque.Y	femur_lat_meniscii_r.meniscus_lat_r.torque.Z	femur_med_meniscii_r.femur_med_r.force.X	femur_med_meniscii_r.femur_med_r.force.Y	femur_med_meniscii_r.femur_med_r.force.Z	femur_med_meniscii_r.femur_med_r.torque.X	femur_med_meniscii_r.femur_med_r.torque.Y	femur_med_meniscii_r.femur_med_r.torque.Z	femur_med_meniscii_r.meniscus_med_r.force.X	femur_med_meniscii_r.meniscus_med_r.force.Y	femur_med_meniscii_r.meniscus_med_r.force.Z	femur_med_meniscii_r.meniscus_med_r.torque.X	femur_med_meniscii_r.meniscus_med_r.torque.Y	femur_med_meniscii_r.meniscus_med_r.torque.Z	femur_med_tibia_r.tibia_upper_r.force.X	femur_med_tibia_r.tibia_upper_r.force.Y	femur_med_tibia_r.tibia_upper_r.force.Z	femur_med_tibia_r.tibia_upper_r.torque.X	femur_med_tibia_r.tibia_upper_r.torque.Y	femur_med_tibia_r.tibia_upper_r.torque.Z	femur_med_tibia_r.femur_med_r.force.X	femur_med_tibia_r.femur_med_r.force.Y	femur_med_tibia_r.femur_med_r.force.Z	femur_med_tibia_r.femur_med_r.torque.X	femur_med_tibia_r.femur_med_r.torque.Y	femur_med_tibia_r.femur_med_r.torque.Z	femur_lat_tibia_r.tibia_upper_r.force.X	femur_lat_tibia_r.tibia_upper_r.force.Y	femur_lat_tibia_r.tibia_upper_r.force.Z	femur_lat_tibia_r.tibia_upper_r.torque.X	femur_lat_tibia_r.tibia_upper_r.torque.Y	femur_lat_tibia_r.tibia_upper_r.torque.Z	femur_lat_tibia_r.femur_lat_r.force.X	femur_lat_tibia_r.femur_lat_r.force.Y	femur_lat_tibia_r.femur_lat_r.force.Z	femur_lat_tibia_r.femur_lat_r.torque.X	femur_lat_tibia_r.femur_lat_r.torque.Y	femur_lat_tibia_r.femur_lat_r.torque.Z	aACL_R	pACL_R	aPCL_R	pPCL_R	aMCL_R	mMCL_R	pMCL_R	aLCL_R	mLCL_R	pLCL_R	ground_prescribedForce_fx	ground_prescribedForce_fy	ground_prescribedForce_fz	ground_prescribedForce_px	ground_prescribedForce_py	ground_prescribedForce_pz
      0.19280974	     10.24905879	      7.51340734	      8.07073474	      3.48417016	      4.07561069	      4.33232815	     12.90776447	      5.65478202	     10.80976681	      9.43981126	      2.01423957	      7.46861838	      5.41279041	      3.86389295	      3.26999061	      5.46494391	      4.95728323	      2.93882934	      2.08507599	      4.84958365	      7.37560068	      5.53325796	     26.01704548	     16.78522592	      4.78055362	      3.40404280	      6.05899733	     15.28573232	      9.27586428	      9.30895468	     11.43064212	      4.81518777	      2.23623565	      9.50800719	     14.07094083	      2.01078811	      2.79128460	     18.05132698	      3.35826131	      8.77165690	      7.91235455	      9.99083117	      3.15878172	     10.24905879	      7.51340734	      8.07073474	      3.48417016	      4.07561069	      4.33232815	     12.56540396	      5.52939125	     10.90130682	      9.51401670	      1.98892345	      7.46861838	      5.41279041	      3.86389295	      3.26999061	      5.46494391	      5.01243626	      2.93882934	      2.04957845	      4.84958365	      7.37560068	      5.53325796	     26.01704548	     16.78522592	      4.78055362	      3.40404280	      6.05899733	     15.06366840	      8.80631409	     10.15599432	     10.90896299	     21.52456685	      9.99991255	     46.07601634	     48.52262646	      4.34236847	      4.40073800	     11.78759011	      6.26473798	     16.68395967	      2.59610043	      7.82737852	      2.45747615	     32.78794320	     32.78794320	     12.08220267	     12.08220267	     29.57868911	     29.57868911	     45.44676413	     88.03897044	     10.95962746	     -6.75971635	      1.13001421	     18.95953711	    -45.44676413	    -88.03897044	    -10.95962746	      2.94905080	     -1.34292687	     -1.44735152	     38.28783424	     77.10614328	      5.42480827	     -0.58389921	     -0.86735602	     16.41206847	    -38.28783424	    -77.10614328	     -5.42480827	     -1.14523404	      0.68798350	     -1.65846123	      0.00000000	      0.00000000	      0.00000000	      0.00000000	      0.00000000	      0.00000000	      0.00000000	      0.00000000	      0.00000000	      0.00000000	      0.00000000	      0.00000000	      0.00000000	      0.00000000	      0.00000000	      0.00000000	      0.00000000	      0.00000000	      0.00000000	      0.00000000	      0.00000000	      0.00000000	      0.00000000	      0.00000000	     16.69489542	     32.76952159	      0.00000000	      0.00000000	      0.00000000	      4.53429510	     16.81992428	      1.41540707	      0.00000000	      3.40506378	    110.00000000	      0.00000000	      0.00000000	      0.03000000	     -0.03000000	      0.00000000
      0.19627045	     10.12866726	      7.43144608	      7.98161750	      3.44774546	      4.03587685	      4.28155480	     12.71910553	      5.57711196	     10.68979125	      9.32661509	      1.98343525	      7.38619419	      5.35673374	      3.82196412	      3.23366750	      5.39906117	      4.92569894	      2.90789215	      2.05462338	      4.79654233	      7.29472846	      5.47158319	     25.86675630	     16.61409942	      4.72948175	      3.37935193	      5.97564775	     15.08383749	      9.12730424	      9.18154021	     11.30741711	      4.73903341	      2.21287795	      9.39156433	     14.16602082	      2.13662145	      2.78967577	     17.85666659	      3.30018168	      8.43006714	      7.93360694	      9.66201102	      3.07837667	     10.12866726	      7.43144608	      7.98161750	      3.44774546	      4.03587685	      4.28155480	     12.39888195	      5.46495588	     10.75986203	      9.41227501	      1.96822784	      7.38619419	      5.35673374	      3.82196412	      3.23366750	      5.39906117	      4.97159776	      2.90789215	      2.02787572	      4.79654233	      7.29472846	      5.47158319	     25.86675630	     16.61409942	      4.72948175	      3.37935193	      5.97564775	     14.86995231	      8.70754633	     10.04011702	     10.78473195	     21.21931653	      9.85785748	     45.44038186	     48.25308435	      4.27308038	      4.33558121	     11.63972203	      6.18087662	     16.50503420	      2.56971010	      7.71721870	      2.42317614	     32.44438898	     32.44438898	     11.94503017	     11.94503017	     29.45484835	     29.45484835	     45.35035801	     87.76516328	     10.92267868	     -6.73687642	      1.12704437	     18.91986699	    -45.35035801	    -87.76516328	    -10.92267868	      2.93904142	     -1.33949003	     -1.44443713	     37.56521425	     75.04051535	      5.26230500	     -0.56053010	     -0.85058772	     16.08946722	    -37.56521425	    -75.04051535	     -5.26230500	     -1.11576173	      0.67462696	     -1.61397642	      0.00000000	      0.00000000	      0.00000000	      0.00000000	      0.00000000	      0.00000000	      0.00000000	      0.00000000	      0.00000000	      0.00000000	      0.00000000	      0.00000000	      0.00000000	      0.00000000	      0.00000000	      0.00000000	      0.00000000	      0.00000000	      0.00000000	      0.00000000	      0.00000000	      0.00000000	      0.00000000	      0.00000000	     16.90138487	     32.97622377	      0.00000000	      0.00000000	      0.00000000	      4.89387733	     17.20958165	      2.19566137	      0.00000000	      4.18760129	    110.00000000	      0.00000000	      0.00000000	      0.03000000	     -0.03000000	      0.00000000
      0.19973117	     10.01371721	      7.35316731	      7.89651366	      3.41294339	      3.99792571	      4.23307522	     12.56131357	      5.51560938	     10.59819666	      9.31772061	      1.97602024	      7.30748206	      5.30316200	      3.78192044	      3.19898498	      5.33615516	      4.90155400	      2.87833626	      2.03910984	      4.74589247	      7.21750263	      5.41269413	     25.72328862	     16.45077971	      4.68069640	      3.35579297	      5.89583736	     14.91990713	      9.04673076	      9.12073353	     11.25372974	      4.70154448	      2.20510562	      9.31193124	     14.20434402	      2.28004746	      2.80666481	     17.64480629	      3.27446926	      8.14360400	      7.94630959	      9.30364043	      2.99272592	     10.01371721	      7.35316731	      7.89651366	      3.41294339	      3.99792571	      4.23307522	     12.23963306	      5.40343241	     10.62466731	      9.31509087	      1.94845265	      7.30748206	      5.30316200	      3.78192044	      3.19898498	      5.33615516	      4.93260628	      2.87833626	      2.00714282	      4.74589247	      7.21750263	      5.41269413	     25.72328862	     16.45077971	      4.68069640	      3.35579297	      5.89583736	     14.68482792	      8.61326085	      9.92950661	     10.66616125	     20.92651473	      9.72160521	     44.83178748	     47.99553010	      4.20692681	      4.27343131	     11.49846947	      6.10067498	     16.33379917	      2.54452038	      7.61145716	      2.39025657	     32.11614824	     32.11614824	     11.81405007	     11.81405007	     29.33664033	     29.33664033	     46.63900685	     90.23345624	     11.24396080	     -6.93188455	      1.15884316	     19.45758524	    -46.63900685	    -90.23345624	    -11.24396080	      3.02161461	     -1.37727716	     -1.48516743	     38.04558746	     75.02142394	      5.23981500	     -0.55151113	     -0.86036061	     16.27970048	    -38.04558746	    -75.02142394	     -5.23981500	     -1.11635156	      0.68220092	     -1.61876123	      0.00000000	      0.00000000	      0.00000000	      0.00000000	      0.00000000	      0.00000000	      0.00000000	      0.00000000	      0.00000000	      0.00000000	      0.00000000	      0.00000000	      0.00000000	      0.00000000	      0.00000000	      0.00000000	      0.00000000	      0.00000000	      0.00000000	      0.00000000	      0.00000000	      0.00000000	      0.00000000	      0.00000000	     16.64246707	     32.73965591	      0.00000000	      0.00000000	      0.00000000	      3.84375460	     16.22131376	      0.95283197	      0.00000000	      2.95577210	    110.00000000	      0.00000000	      0.00000000	      0.03000000	     -0.03000000	      0.00000000
      0.20255215	      9.92386710	      7.29196533	      7.82998207	      3.38572354	      3.96825191	      4.19518062	     12.40612705	      5.45126980	     10.49998653	      9.18906748	      1.94319923	      7.24594737	      5.26125395	      3.75061328	      3.17187453	      5.28698448	      4.87595518	      2.85522192	      2.01059888	      4.70629776	      7.15713269	      5.36666213	     25.61116616	     16.32317157	      4.64254804	      3.33738914	      5.83329194	     14.75405531	      8.90731783	      8.99386063	     11.12530078	      4.63317049	      2.17953852	      9.20819212	     14.18072986	      2.40551673	      2.82789640	     17.49749507	      3.27454531	      7.94795316	      7.98380823	      8.99908586	      2.92329726	      9.92386710	      7.29196533	      7.82998207	      3.38572354	      3.96825191	      4.19518062	     12.11498009	      5.35534251	     10.51889350	      9.23909816	      1.93298468	      7.24594737	      5.26125395	      3.75061328	      3.17187453	      5.28698448	      4.90212958	      2.85522192	      1.99092917	      4.70629776	      7.15713269	      5.36666213	     25.61116616	     16.32317157	      4.64254804	      3.33738914	      5.83329194	     14.54001244	      8.53957493	      9.84306837	     10.57351163	     20.69668113	      9.61466110	     44.35488300	     47.79407024	      4.15522551	      4.22489932	     11.38801342	      6.03789359	     16.19966674	      2.52483627	      7.52837925	      2.36440642	     31.85942713	     31.85942713	     11.71166442	     11.71166442	     29.24426657	     29.24426657	     45.52479117	     88.63355419	     11.04739973	     -6.80910606	      1.13166693	     18.99154854	    -45.52479117	    -88.63355419	    -11.04739973	      2.96698537	     -1.34486879	     -1.44818218	     37.15094778	     72.95608592	      5.07016590	     -0.52475669	     -0.83978526	     15.88976899	    -37.15094778	    -72.95608592	     -5.07016590	     -1.08748570	      0.66583957	     -1.57332826	      0.00000000	      0.00000000	      0.00000000	      0.00000000	      0.00000000	      0.00000000	      0.00000000	      0.00000000	      0.00000000	      0.00000000	      0.00000000	      0.00000000	      0.00000000	      0.00000000	      0.00000000	      0.00000000	      0.00000000	      0.00000000	      0.00000000	      0.00000000	      0.00000000	      0.00000000	      0.00000000	      0.00000000	     17.03505019	     33.13098889	      0.00000000	      0.00000000	      0.00000000	      4.81179694	     17.19585754	      2.47327891	      0.00000000	      4.47891971	    110.00000000	      0.00000000	      0.00000000	      0.03000000	     -0.03000000	      0.00000000
